<svg width="2057" height="424" viewBox="0 0 2057 424" fill="none" xmlns="http://www.w3.org/2000/svg">
<path d="M10.5957 354V80.5L0.595704 30L10.5957 -2.14577e-06H170.596C194.929 -2.14577e-06 216.762 3.83332 236.096 11.5C255.762 18.8333 271.262 31.5 282.596 49.5C294.262 67.1666 300.096 91.6666 300.096 123C300.096 154.333 293.929 179.167 281.596 197.5C269.262 215.5 252.096 228.333 230.096 236C208.429 243.667 183.596 247.5 155.596 247.5H100.596V273.5L105.596 323.5L100.596 354H10.5957ZM100.596 169H149.596C166.929 169 180.762 165.833 191.096 159.5C201.429 152.833 206.596 140.667 206.596 123C206.596 110.667 204.096 101.5 199.096 95.5C194.096 89.1667 187.096 85 178.096 83C169.429 81 159.262 80 147.596 80H95.5957L100.596 169ZM342.656 354V263.856L336.608 235.056L342.656 217.776H381.824L387.584 224.4C387.584 224.4 388.928 223.632 391.616 222.096C394.304 220.368 398.048 218.736 402.848 217.2C407.84 215.664 413.6 214.896 420.128 214.896C423.968 214.896 427.808 215.184 431.648 215.76C435.488 216.336 438.464 217.104 440.576 218.064L459.296 233.904L440.576 270.768L402.56 254.928L393.92 257.808V354H342.656ZM531.453 356.88C508.029 356.88 489.885 351.312 477.021 340.176C464.157 329.04 457.725 310.992 457.725 286.032C457.725 260.88 464.157 242.832 477.021 231.888C489.885 220.752 508.029 215.184 531.453 215.184C555.453 215.184 573.597 220.752 585.885 231.888C598.365 242.832 604.605 260.88 604.605 286.032C604.605 310.992 598.365 329.04 585.885 340.176C573.597 351.312 555.453 356.88 531.453 356.88ZM531.453 319.44C539.325 319.44 544.797 316.56 547.869 310.8C550.941 304.848 552.477 296.592 552.477 286.032C552.477 275.28 550.941 267.024 547.869 261.264C544.797 255.504 539.325 252.624 531.453 252.624C523.389 252.624 517.725 255.504 514.461 261.264C511.389 267.024 509.853 275.28 509.853 286.032C509.853 296.592 511.389 304.848 514.461 310.8C517.725 316.56 523.389 319.44 531.453 319.44ZM664.703 209.424L628.127 172.56L664.703 135.984L701.279 172.56L664.703 209.424ZM626.975 423.984C623.519 423.984 619.583 423.696 615.167 423.12C610.943 422.736 607.103 422.16 603.647 421.392L589.823 407.28L604.223 373.008L629.567 382.8C633.983 382.8 636.959 381.36 638.495 378.48C640.031 375.792 640.703 372.144 640.511 367.536C640.319 363.12 639.839 358.512 639.071 353.712V258.096L633.023 232.176L638.783 217.776H690.623V366.096C690.623 386.256 685.055 400.944 673.919 410.16C662.975 419.376 647.327 423.984 626.975 423.984ZM793.358 356.88C778.574 356.88 765.422 354.672 753.902 350.256C742.382 345.84 733.358 338.448 726.83 328.08C720.302 317.712 717.038 303.696 717.038 286.032C717.038 273.36 719.15 262.512 723.374 253.488C727.79 244.464 733.646 237.168 740.942 231.6C748.238 225.84 756.398 221.712 765.422 219.216C774.446 216.528 783.758 215.184 793.358 215.184C809.87 215.184 822.542 216.816 831.374 220.08C840.398 223.344 846.35 225.936 849.23 227.856L863.63 273.648L857.87 291.504H768.59C769.934 298.608 773.486 304.56 779.246 309.36C785.006 314.16 794.51 316.56 807.758 316.56C818.126 316.56 827.054 315.408 834.542 313.104C842.03 310.8 847.886 308.784 852.11 307.056V345.648C846.35 348.72 837.998 351.408 827.054 353.712C816.302 355.824 805.07 356.88 793.358 356.88ZM768.878 273.072L808.622 267.312L806.03 254.928C804.686 254.16 802.67 253.584 799.982 253.2C797.486 252.816 795.278 252.624 793.358 252.624C787.982 252.624 783.47 253.776 779.822 256.08C776.366 258.384 773.678 261.168 771.758 264.432C770.03 267.504 769.07 270.384 768.878 273.072ZM948.192 356.88C934.944 356.88 922.944 354.672 912.192 350.256C901.632 345.84 893.184 338.448 886.848 328.08C880.704 317.712 877.632 303.696 877.632 286.032C877.632 268.176 880.992 254.16 887.712 243.984C894.432 233.616 903.168 226.224 913.92 221.808C924.672 217.392 936.096 215.184 948.192 215.184C958.752 215.184 967.776 215.568 975.264 216.336C982.944 217.104 988.032 217.776 990.528 218.352L1012.99 243.696L989.952 275.088L956.832 255.504C940.32 255.504 932.064 265.68 932.064 286.032C932.064 296.592 934.56 304.368 939.552 309.36C944.544 314.16 952.224 316.56 962.592 316.56C972.96 316.56 982.272 315.12 990.528 312.24C998.784 309.36 1005.22 306.672 1009.82 304.176V345.648C1003.87 348.72 996 351.408 986.208 353.712C976.608 355.824 963.936 356.88 948.192 356.88ZM1091.66 356.88C1078.6 356.88 1068.14 353.04 1060.27 345.36C1052.4 337.68 1048.46 327.984 1048.46 316.272V253.488H1027.44V226.128L1045.58 212.016L1066.03 176.304H1100.01V218.064H1140.33V255.504H1100.01V317.136L1140.33 316.848V348.24C1140.33 348.24 1138.03 349.008 1133.42 350.544C1129 351.888 1123.15 353.232 1115.85 354.576C1108.56 356.112 1100.49 356.88 1091.66 356.88ZM1188.87 354V80.5L1178.87 30.5L1189.37 0.499991H1284.87L1382.87 190.5H1392.87L1473.87 0.499991H1573.37L1578.37 30.5L1573.37 78.5V354H1482.87L1484.37 311.5V172H1478.87L1458.87 220L1413.87 304H1353.87L1284.87 172H1279.87V212.5L1284.87 354H1188.87ZM1663.06 356.88C1654.81 356.88 1647.13 355.728 1640.02 353.424C1633.11 350.928 1627.54 346.704 1623.32 340.752C1619.09 334.8 1616.98 326.544 1616.98 315.984C1616.98 306.384 1619.38 298.416 1624.18 292.08C1628.98 285.744 1635.51 281.04 1643.77 277.968C1652.02 274.896 1661.33 273.36 1671.7 273.36C1681.69 273.36 1689.17 274.512 1694.17 276.816C1699.16 278.928 1703.48 281.136 1707.13 283.44L1709.14 281.712C1709.14 275.952 1708.66 271.152 1707.7 267.312C1706.74 263.472 1704.53 260.592 1701.08 258.672C1697.62 256.56 1692.25 255.504 1684.95 255.504C1677.85 255.504 1670.26 256.176 1662.2 257.52C1654.33 258.672 1647.03 260.208 1640.31 262.128C1633.78 263.856 1628.89 265.584 1625.62 267.312V224.112C1631.57 222 1640.02 220.08 1650.97 218.352C1662.1 216.432 1675.73 215.472 1691.86 215.472C1709.14 215.472 1722.77 217.68 1732.76 222.096C1742.93 226.32 1750.23 232.56 1754.65 240.816C1759.06 248.88 1761.27 258.576 1761.27 269.904V308.208L1767.03 337.296L1761.27 354.288H1712.02V340.176L1709.14 338.736C1707.61 340.272 1704.92 342.48 1701.08 345.36C1697.24 348.24 1692.15 350.928 1685.81 353.424C1679.48 355.728 1671.89 356.88 1663.06 356.88ZM1687.54 319.152C1692.73 319.152 1697.14 318.672 1700.79 317.712C1704.63 316.752 1707.41 315.888 1709.14 315.12V309.648C1709.14 307.152 1707.32 304.752 1703.67 302.448C1700.21 300.144 1694.74 298.992 1687.25 298.992C1676.89 298.992 1671.7 302.64 1671.7 309.936C1671.7 313.008 1672.85 315.312 1675.16 316.848C1677.46 318.384 1681.59 319.152 1687.54 319.152ZM1845.6 356.88C1832.55 356.88 1822.08 353.04 1814.21 345.36C1806.34 337.68 1802.4 327.984 1802.4 316.272V253.488H1781.38V226.128L1799.52 212.016L1819.97 176.304H1853.95V218.064H1894.27V255.504H1853.95V317.136L1894.27 316.848V348.24C1894.27 348.24 1891.97 349.008 1887.36 350.544C1882.95 351.888 1877.09 353.232 1869.79 354.576C1862.5 356.112 1854.43 356.88 1845.6 356.88ZM1986.33 356.88C1971.55 356.88 1958.39 354.672 1946.87 350.256C1935.35 345.84 1926.33 338.448 1919.8 328.08C1913.27 317.712 1910.01 303.696 1910.01 286.032C1910.01 273.36 1912.12 262.512 1916.35 253.488C1920.76 244.464 1926.62 237.168 1933.91 231.6C1941.21 225.84 1949.37 221.712 1958.39 219.216C1967.42 216.528 1976.73 215.184 1986.33 215.184C2002.84 215.184 2015.51 216.816 2024.35 220.08C2033.37 223.344 2039.32 225.936 2042.2 227.856L2056.6 273.648L2050.84 291.504H1961.56C1962.91 298.608 1966.46 304.56 1972.22 309.36C1977.98 314.16 1987.48 316.56 2000.73 316.56C2011.1 316.56 2020.03 315.408 2027.51 313.104C2035 310.8 2040.86 308.784 2045.08 307.056V345.648C2039.32 348.72 2030.97 351.408 2020.03 353.712C2009.27 355.824 1998.04 356.88 1986.33 356.88ZM1961.85 273.072L2001.59 267.312L1999 254.928C1997.66 254.16 1995.64 253.584 1992.95 253.2C1990.46 252.816 1988.25 252.624 1986.33 252.624C1980.95 252.624 1976.44 253.776 1972.79 256.08C1969.34 258.384 1966.65 261.168 1964.73 264.432C1963 267.504 1962.04 270.384 1961.85 273.072Z" fill="#1D77EE"/>
</svg>
